<svg width="266" height="250" viewBox="0 0 266 250" fill="none" xmlns="http://www.w3.org/2000/svg">
<path d="M58.8367 104.5V36.75C58.8367 32.5833 60.2534 29.3333 63.0867 27C65.92 24.6667 69.795 23.5 74.7117 23.5C79.6284 23.5 83.42 24.5833 86.0867 26.75C88.8367 28.9167 90.2117 32.0833 90.2117 36.25V95.375C90.2117 97.125 90.545 98.375 91.2117 99.125C91.9617 99.7917 93.2117 100.125 94.9617 100.125C94.9617 104.875 92.295 107.25 86.9617 107.25C82.545 107.25 80.3367 104.375 80.3367 98.625V74.75H68.7117V94.25L69.2117 106C66.3784 106.417 63.5867 106.625 60.8367 106.625C59.5034 106.625 58.8367 105.917 58.8367 104.5ZM68.7117 36.75V66.5H80.3367V36.75C80.3367 35.1667 79.795 33.9583 78.7117 33.125C77.6284 32.2083 76.2117 31.75 74.4617 31.75C72.7117 31.75 71.295 32.2083 70.2117 33.125C69.2117 33.9583 68.7117 35.1667 68.7117 36.75ZM121.855 35C121.855 30.9167 121.564 27.5 120.98 24.75C123.814 24.4167 126.689 24.25 129.605 24.25C131.022 24.25 131.73 24.875 131.73 26.125V95.375C131.73 97.125 132.064 98.375 132.73 99.125C133.397 99.875 134.605 100.25 136.355 100.25C136.439 102.417 135.855 104.125 134.605 105.375C133.439 106.625 131.73 107.25 129.48 107.25C125.98 107.25 123.73 105.958 122.73 103.375C120.397 105.958 117.189 107.25 113.105 107.25C104.605 107.25 100.355 103.25 100.355 95.25V35.375C100.355 33.625 99.9802 32.4167 99.2302 31.75C98.5636 31 97.3552 30.625 95.6052 30.625C95.6052 25.875 98.2719 23.5 103.605 23.5C108.022 23.5 110.23 26.375 110.23 32.125V94.5C110.23 97.5 111.73 99 114.73 99C117.814 99 120.189 97.5417 121.855 94.625V35ZM163.103 24.75C166.103 24.75 168.353 24.5417 169.853 24.125C170.52 26.4583 170.853 28.75 170.853 31C170.853 32.3333 170.27 33 169.103 33H159.353V94.25L159.853 106C157.02 106.417 154.228 106.625 151.478 106.625C150.145 106.625 149.478 105.917 149.478 104.5V33H145.728C142.728 33 140.478 33.2083 138.978 33.625C138.312 31.2917 137.978 29 137.978 26.75C137.978 25.4167 138.562 24.75 139.728 24.75H163.103ZM175.405 94.5V36.75C175.405 32.5833 176.822 29.3333 179.655 27C182.488 24.6667 186.363 23.5 191.28 23.5C196.197 23.5 199.988 24.5833 202.655 26.75C205.405 28.9167 206.78 32.0833 206.78 36.25V94C206.78 98.1667 205.322 101.417 202.405 103.75C199.572 106.083 195.697 107.25 190.78 107.25C185.863 107.25 182.072 106.167 179.405 104C176.738 101.833 175.405 98.6667 175.405 94.5ZM185.28 36.75V94C185.28 95.5 185.78 96.7083 186.78 97.625C187.863 98.5417 189.28 99 191.03 99C192.78 99 194.197 98.5833 195.28 97.75C196.363 96.8333 196.905 95.5833 196.905 94V36.75C196.905 35.1667 196.363 33.9583 195.28 33.125C194.197 32.2083 192.78 31.75 191.03 31.75C189.28 31.75 187.863 32.2083 186.78 33.125C185.78 33.9583 185.28 35.1667 185.28 36.75ZM69.867 159C67.617 159 65.367 160.125 63.117 162.375V223.75H68.867C70.617 223.75 72.0336 223.333 73.117 222.5C74.2003 221.583 74.742 220.333 74.742 218.75V163.75C74.742 160.583 73.117 159 69.867 159ZM72.242 150.75C80.492 150.75 84.617 154.833 84.617 163V218.75C84.617 222.917 83.1586 226.167 80.242 228.5C77.4086 230.833 73.5336 232 68.617 232H53.242V162.875C53.242 161.042 52.9086 159.75 52.242 159C51.5753 158.167 50.367 157.75 48.617 157.75C48.5336 155.583 49.117 153.875 50.367 152.625C51.617 151.375 53.617 150.75 56.367 150.75C59.2003 150.75 61.1586 152.125 62.242 154.875C65.492 152.125 68.8253 150.75 72.242 150.75ZM103.636 221.75C103.636 225.75 103.927 229.083 104.511 231.75C102.011 232.25 99.3022 232.5 96.3855 232.5C94.9688 232.5 94.2605 231.875 94.2605 230.625V181.125C94.2605 179.375 93.9272 178.125 93.2605 177.375C92.6772 176.625 91.5105 176.25 89.7605 176.25C89.6772 174.083 90.2188 172.417 91.3855 171.25C92.6355 170.083 94.3855 169.5 96.6355 169.5C99.9688 169.5 102.052 171.167 102.886 174.5C104.969 171.167 107.927 169.5 111.761 169.5C118.594 169.5 122.011 172.792 122.011 179.375V191.875C122.011 193.292 121.011 194.25 119.011 194.75C118.011 195.083 116.927 195.25 115.761 195.25C114.677 195.25 113.594 195.125 112.511 194.875C112.761 193.042 112.886 191.083 112.886 189V182.625C112.886 179.875 111.636 178.5 109.136 178.5C107.969 178.5 106.886 179.042 105.886 180.125C104.886 181.208 104.136 182.417 103.636 183.75V221.75ZM133.92 159.375C130.336 159.375 128.545 157 128.545 152.25C128.545 147.5 130.336 145.125 133.92 145.125C137.503 145.125 139.295 147.5 139.295 152.25C139.295 157 137.503 159.375 133.92 159.375ZM126.17 170.75H138.67V221.625C138.67 223.375 138.961 224.625 139.545 225.375C140.211 226.125 141.42 226.5 143.17 226.5C143.253 228.667 142.67 230.333 141.42 231.5C140.253 232.667 138.503 233.25 136.17 233.25C133.836 233.25 132.086 232.542 130.92 231.125C129.836 229.708 129.295 227.375 129.295 224.125V178.25L125.42 178.875C124.836 176.708 124.545 174.833 124.545 173.25C124.545 171.583 125.086 170.75 126.17 170.75ZM151.055 169.5C153.389 169.5 155.055 170.167 156.055 171.5C157.139 172.833 157.68 175.833 157.68 180.5C157.68 185.083 158.264 192 159.43 201.25C160.597 210.5 161.889 218.083 163.305 224C167.139 206.917 169.055 191.792 169.055 178.625L168.805 170.5C170.389 170.167 171.889 170 173.305 170C174.805 170 176.139 170.167 177.305 170.5C178.555 170.833 179.18 171.667 179.18 173C179.18 180.083 178.347 189.25 176.68 200.5C175.014 211.75 173.139 220.75 171.055 227.5C170.139 230.5 168.639 232 166.555 232H159.18C157.097 232 155.597 230.5 154.68 227.5C152.847 221.167 151.305 213.417 150.055 204.25C148.889 195 148.305 187.292 148.305 181.125C148.305 179.375 147.972 178.125 147.305 177.375C146.722 176.625 145.555 176.25 143.805 176.25C143.722 174.167 144.305 172.542 145.555 171.375C146.889 170.125 148.722 169.5 151.055 169.5ZM205.028 182.875C205.028 181.208 204.528 179.917 203.528 179C202.528 178 201.278 177.5 199.778 177.5C196.695 177.5 195.153 178.792 195.153 181.375V199.25L201.153 194.75C203.736 192.833 205.028 188.875 205.028 182.875ZM185.778 220.875V181.75C185.778 173.583 190.57 169.5 200.153 169.5C209.82 169.5 214.653 174.083 214.653 183.25C214.653 186.917 213.986 190.292 212.653 193.375C211.32 196.458 209.486 198.792 207.153 200.375L195.153 208.625V220C195.153 223.5 196.778 225.25 200.028 225.25C203.361 225.25 205.028 223.292 205.028 219.375V216.5L204.653 210.625C205.736 210.375 206.82 210.25 207.903 210.25C209.07 210.25 210.153 210.417 211.153 210.75C213.153 211.25 214.153 212.208 214.153 213.625V222.625C214.153 225.958 212.82 228.583 210.153 230.5C207.57 232.333 204.111 233.25 199.778 233.25C190.445 233.25 185.778 229.125 185.778 220.875Z" fill="white"/>
</svg>
